<?xml version="1.0" encoding="UTF-8" standalone="no"?>
<!-- Created with Inkscape (http://www.inkscape.org/) -->

<svg
   width="48"
   height="48"
   viewBox="0 0 48 48"
   version="1.1"
   id="svg1"
   xmlns="http://www.w3.org/2000/svg"
   xmlns:svg="http://www.w3.org/2000/svg">
  <defs
     id="defs1" />
  <g
     id="layer1">
    <circle
       style="fill:#ffe6ff;fill-opacity:1;stroke:#1b9822;stroke-width:0.52751;stroke-dasharray:none;stroke-opacity:1"
       id="path9"
       cx="24"
       cy="24"
       r="23.704994" />
    <ellipse
       style="fill:#f0ebff;fill-opacity:1;stroke:#1b9822;stroke-width:0.5;stroke-dasharray:none;stroke-opacity:1"
       id="path4"
       cx="24"
       cy="24"
       rx="9.0912075"
       ry="9.2095308" />
    <g
       id="g9"
       transform="translate(0.9375,-0.8125)">
      <path
         style="fill:#1b9822;fill-opacity:1;stroke:#1b9822;stroke-width:0.0354301;stroke-dasharray:none;stroke-opacity:1"
         d="m 23.140456,14.102591 c 0.05158,-1.926042 0.181177,-4.680183 0.262977,-5.5890838 0.144278,-1.6031358 0.467026,-3.149226 0.768449,-3.6811715 0.162118,-0.2861037 0.183305,-0.2988759 0.470002,-0.2833385 0.518676,0.028109 1.780698,0.6198738 2.381376,1.1166303 0.879874,0.72765 1.208222,1.3053101 1.360448,2.3934247 0.195311,1.3960939 0.0471,2.9825348 -0.369292,3.9525508 -0.286133,0.666592 -1.372849,1.787305 -2.240583,2.310685 -0.617003,0.372148 -1.56553,0.713097 -2.464346,0.885814 l -0.19967,0.03837 z"
         id="path6" />
      <path
         style="fill:none;fill-opacity:0.648184;stroke:#1b9822;stroke-width:0.5;stroke-dasharray:none;stroke-opacity:1"
         d="m 23.311744,15.314915 c 0,0 1.377858,-0.127586 2.565731,-0.915255 0.406164,-0.269325 1.673957,-1.424387 1.990303,-2.342364 0.465861,-1.351845 0.482735,-2.6211348 0.276089,-4.1807729 C 27.942786,6.3588829 26.74315,5.3447693 25.619627,4.8789882 24.441423,4.390538 24.234892,4.4142792 23.884212,5.9439019 c -0.41838,1.8249206 -0.431679,3.543352 -0.545091,5.9575611 -0.08558,1.821852 -0.04711,3.69292 -0.0614,4.336605 -0.03712,1.671911 -2.581689,23.751786 -2.804866,24.93484 -0.123956,0.657088 -0.443111,1.054503 -0.65191,1.272909 -0.275985,0.288685 -0.469043,0.413594 -0.818024,0.565975 -0.555215,0.242431 -0.457419,0.236798 -0.846536,0.321962 -0.295006,0.06457 -0.573452,0.100839 -0.818563,0.09918 -0.409286,-0.0028 -0.661423,-0.126027 -0.851371,-0.231212 -0.299695,-0.16596 -0.657327,-0.461882 -0.78361,-0.743806 -0.154075,-0.343968 -0.196942,-0.91506 -0.16045,-1.343185 0.0259,-0.303834 0.103583,-0.909275 0.314995,-1.235959 0.281469,-0.434939 0.63186,-0.842229 0.978055,-1.070286 0.444242,-0.292646 0.987644,-0.447414 1.205041,-0.493908 0.475118,-0.101613 1.058905,-0.176698 1.480667,-0.208994 0.730935,-0.05597 1.385158,-0.0112 1.385158,-0.0112"
         id="path5" />
    </g>
  </g>
</svg>
